<svg width="50" height="50" viewBox="0 0 50 50" fill="none" xmlns="http://www.w3.org/2000/svg">
<path d="M27.5 25C28.8261 25 30.0979 25.5268 31.0355 26.4645C31.9732 27.4021 32.5 28.6739 32.5 30H27.5C26.1739 30 24.9021 30.5268 23.9645 31.4645C23.0268 32.4021 22.5 33.6739 22.5 35V42.2425C21.335 42.4125 20.0825 42.5 18.75 42.5C10.22 42.5 5 38.885 5 33.75V30C5 28.6739 5.52678 27.4021 6.46447 26.4645C7.40215 25.5268 8.67392 25 10 25H27.5ZM33.43 25.4075C34.415 26.6775 35 28.27 35 30H45C45 28.6739 44.4732 27.4021 43.5355 26.4645C42.5979 25.5268 41.3261 25 40 25H33.0875L33.43 25.4075ZM18.75 5C19.8991 5 21.0369 5.22633 22.0985 5.66605C23.1601 6.10578 24.1247 6.7503 24.9372 7.56282C25.7497 8.37533 26.3942 9.33992 26.8339 10.4015C27.2737 11.4631 27.5 12.6009 27.5 13.75C27.5 14.8991 27.2737 16.0369 26.8339 17.0985C26.3942 18.1601 25.7497 19.1247 24.9372 19.9372C24.1247 20.7497 23.1601 21.3942 22.0985 21.8339C21.0369 22.2737 19.8991 22.5 18.75 22.5C16.4294 22.5 14.2038 21.5781 12.5628 19.9372C10.9219 18.2962 10 16.0706 10 13.75C10 11.4294 10.9219 9.20376 12.5628 7.56282C14.2038 5.92187 16.4294 5 18.75 5ZM36.25 10C37.9076 10 39.4973 10.6585 40.6694 11.8306C41.8415 13.0027 42.5 14.5924 42.5 16.25C42.5 17.9076 41.8415 19.4973 40.6694 20.6694C39.4973 21.8415 37.9076 22.5 36.25 22.5C34.5924 22.5 33.0027 21.8415 31.8306 20.6694C30.6585 19.4973 30 17.9076 30 16.25C30 14.5924 30.6585 13.0027 31.8306 11.8306C33.0027 10.6585 34.5924 10 36.25 10ZM47.5 36.25V43.75C47.5 44.7446 47.1049 45.6984 46.4016 46.4016C45.6984 47.1049 44.7446 47.5 43.75 47.5H28.75C27.7554 47.5 26.8016 47.1049 26.0983 46.4016C25.3951 45.6984 25 44.7446 25 43.75V36.25C25 35.2554 25.3951 34.3016 26.0983 33.5983C26.8016 32.8951 27.7554 32.5 28.75 32.5H43.75C44.7446 32.5 45.6984 32.8951 46.4016 33.5983C47.1049 34.3016 47.5 35.2554 47.5 36.25ZM43.75 45C43.75 44.6685 43.8817 44.3505 44.1161 44.1161C44.3505 43.8817 44.6685 43.75 45 43.75V41.25C44.0054 41.25 43.0516 41.6451 42.3484 42.3484C41.6451 43.0516 41.25 44.0054 41.25 45H43.75ZM45 36.25C44.6685 36.25 44.3505 36.1183 44.1161 35.8839C43.8817 35.6495 43.75 35.3315 43.75 35H41.25C41.25 35.9946 41.6451 36.9484 42.3484 37.6516C43.0516 38.3549 44.0054 38.75 45 38.75V36.25ZM28.75 35C28.75 35.3315 28.6183 35.6495 28.3839 35.8839C28.1495 36.1183 27.8315 36.25 27.5 36.25V38.75C28.4946 38.75 29.4484 38.3549 30.1517 37.6516C30.8549 36.9484 31.25 35.9946 31.25 35H28.75ZM27.5 43.75C27.8315 43.75 28.1495 43.8817 28.3839 44.1161C28.6183 44.3505 28.75 44.6685 28.75 45H31.25C31.25 44.0054 30.8549 43.0516 30.1517 42.3484C29.4484 41.6451 28.4946 41.25 27.5 41.25V43.75ZM36.25 36.25C35.2554 36.25 34.3016 36.6451 33.5983 37.3484C32.8951 38.0516 32.5 39.0054 32.5 40C32.5 40.9946 32.8951 41.9484 33.5983 42.6516C34.3016 43.3549 35.2554 43.75 36.25 43.75C37.2446 43.75 38.1984 43.3549 38.9016 42.6516C39.6049 41.9484 40 40.9946 40 40C40 39.0054 39.6049 38.0516 38.9016 37.3484C38.1984 36.6451 37.2446 36.25 36.25 36.25Z" fill="#FF671B"/>
</svg>
