<svg width="50" height="47" viewBox="0 0 50 47" fill="none" xmlns="http://www.w3.org/2000/svg">
<path d="M25 0C15.1536 0 7.14286 8.01072 7.14286 17.8571C7.14286 27.7036 15.1536 35.7143 25 35.7143C34.8464 35.7143 42.8571 27.7036 42.8571 17.8571C42.8571 8.01072 34.8464 0 25 0ZM25 3.57143C32.8768 3.57143 39.2857 9.98036 39.2857 17.8571C39.2857 25.7339 32.8768 32.1429 25 32.1429C17.1232 32.1429 10.7143 25.7339 10.7143 17.8571C10.7143 9.98036 17.1232 3.57143 25 3.57143ZM23.2143 7.14286V9.26786C21.9267 9.73599 20.8605 10.6684 20.225 11.8821C19.6715 12.9507 19.5049 14.1779 19.7536 15.3554C19.9733 16.3798 20.4828 17.3194 21.2214 18.0625C21.7089 18.55 22.2893 18.9446 22.9286 19.2179C23.5679 19.4911 24.2679 19.6429 25 19.6429C25.2536 19.6429 25.4929 19.6911 25.7071 19.7786C25.9193 19.8649 26.112 19.9928 26.2739 20.1547C26.4358 20.3166 26.5637 20.5093 26.65 20.7214C26.7375 20.9357 26.7857 21.175 26.7857 21.4286C26.7935 21.7803 26.6946 22.1262 26.5021 22.4207C26.3096 22.7152 26.0325 22.9446 25.7071 23.0786C25.4929 23.1661 25.2536 23.2143 25 23.2143C24.7446 23.2143 24.5071 23.1661 24.2929 23.0786C24.0809 22.992 23.8885 22.8639 23.7268 22.7018C23.5613 22.5341 23.4308 22.3352 23.3428 22.1166C23.2548 21.898 23.2111 21.6642 23.2143 21.4286H19.6429C19.6431 22.818 20.1933 24.1508 21.1732 25.1357C21.7467 25.7206 22.4442 26.1691 23.2143 26.4482V28.5714H26.7857V26.4464C27.6861 26.1237 28.4846 25.5675 29.0996 24.8349C29.7146 24.1023 30.1239 23.2195 30.2857 22.2768C30.5063 20.9377 30.2004 19.5652 29.4321 18.4464C29.0446 17.8759 28.5526 17.384 27.9821 16.9964C27.4039 16.604 26.755 16.3275 26.0714 16.1821C25.719 16.1086 25.36 16.0715 25 16.0714C24.7446 16.0714 24.5071 16.0232 24.2929 15.9357C24.0807 15.8494 23.888 15.7215 23.7261 15.5596C23.5642 15.3977 23.4363 15.205 23.35 14.9929C23.2592 14.7682 23.2131 14.528 23.2143 14.2857C23.2143 14.0304 23.2625 13.7929 23.35 13.5786C23.4363 13.3665 23.5642 13.1738 23.7261 13.0118C23.888 12.8499 24.0807 12.722 24.2929 12.6357C24.5071 12.5482 24.7464 12.5 25 12.5C26.0179 12.5 26.7857 13.2679 26.7857 14.2857H30.3571C30.3576 13.7251 30.2684 13.1681 30.0929 12.6357C29.83 11.862 29.3962 11.1574 28.8236 10.5744C28.2511 9.99131 27.5545 9.54475 26.7857 9.26786V7.14286H23.2143ZM0 32.1429V46.4286H3.57143V35.7143H13.1786C11.6644 34.7018 10.2844 33.5018 9.07143 32.1429H0ZM40.9286 32.1429C39.7156 33.5018 38.3356 34.7018 36.8214 35.7143H46.4286V46.4286H50V32.1429H40.9286ZM7.14286 39.2857V42.8571H42.8571V39.2857H7.14286Z" fill="#FF671B"/>
<ellipse cx="25.5" cy="18" rx="16.5" ry="16" fill="#FF671B"/>
<path d="M19.768 12.576C21.3253 12.576 22.472 12.8587 23.208 13.424C23.9547 13.9893 24.328 14.848 24.328 16C24.328 16.5227 24.2267 16.9813 24.024 17.376C23.832 17.76 23.5707 18.0907 23.24 18.368C22.92 18.6347 22.5733 18.8533 22.2 19.024L25.56 24H22.872L20.152 19.616H18.856V24H16.44V12.576H19.768ZM19.592 14.56H18.856V17.648H19.64C20.44 17.648 21.0107 17.5147 21.352 17.248C21.704 16.9813 21.88 16.5867 21.88 16.064C21.88 15.52 21.6933 15.136 21.32 14.912C20.9573 14.6773 20.3813 14.56 19.592 14.56ZM30.6505 12.576C32.1225 12.576 33.1945 12.896 33.8665 13.536C34.5492 14.1653 34.8905 15.0347 34.8905 16.144C34.8905 16.8053 34.7518 17.4293 34.4745 18.016C34.1972 18.592 33.7332 19.056 33.0825 19.408C32.4425 19.76 31.5678 19.936 30.4585 19.936H29.4185V24H27.0025V12.576H30.6505ZM30.5225 14.56H29.4185V17.952H30.2185C30.9012 17.952 31.4398 17.8187 31.8345 17.552C32.2398 17.2747 32.4425 16.832 32.4425 16.224C32.4425 15.1147 31.8025 14.56 30.5225 14.56Z" fill="white"/>
</svg>
